<svg xmlns="http://www.w3.org/2000/svg" width="128" height="128" viewBox="0 0 48 48"><g fill="none" stroke="#a00000" stroke-linecap="round" stroke-linejoin="round" stroke-width="4"><path d="M5.555 23.194a19 19 0 0 1-.514-1.188C4.393 20.347 4 18.604 4 16.8C4 10.835 8.884 6 14.91 6c3.794 0 7.136 1.918 9.09 4.828A10.93 10.93 0 0 1 33.09 6C39.117 6 44 10.835 44 16.8c0 7.765-7.273 14.4-10.91 18Q29.456 38.4 24 42q-5.455-3.6-9.09-7.2c-.367-.362-.77-.756-1.199-1.178"/><path d="M8 29.973L19.114 19.04l6.464 6.666l9.684-9.887"/></g></svg>